<svg width="16" height="16" viewBox="0 0 16 16" fill="none" xmlns="http://www.w3.org/2000/svg">
<rect width="16" height="16" fill="none" style="mix-blend-mode:multiply"/>
<path d="M13 14L3 14C2.73489 13.9996 2.48075 13.8942 2.29329 13.7067C2.10583 13.5193 2.00036 13.2651 2 13L2 3C2.00036 2.73489 2.10583 2.48075 2.29329 2.29329C2.48075 2.10583 2.73489 2.00036 3 2L8 2V3L3 3L3 13L13 13L13 8H14L14 13C13.9996 13.2651 13.8942 13.5193 13.7067 13.7067C13.5193 13.8942 13.2651 13.9996 13 14Z" fill="#161616"/>
<path d="M10 1V2L13.293 2L9 6.293L9.707 7L14 2.707V6H15V1L10 1Z" fill="#161616"/>
</svg>
