<svg id="Layer_1" data-name="Layer 1" xmlns="http://www.w3.org/2000/svg" xmlns:xlink="http://www.w3.org/1999/xlink" viewBox="0 0 451.72 140.85"><defs><style>.cls-1{fill:#010101;}.cls-2{fill:url(#radial-gradient);}.cls-3{fill:url(#radial-gradient-2);}.cls-4{fill:url(#radial-gradient-3);}.cls-5{fill:url(#radial-gradient-4);}.cls-6{fill:url(#radial-gradient-5);}</style><radialGradient id="radial-gradient" cx="63.54" cy="71.12" r="64.97" gradientTransform="matrix(0.96, 0.21, -0.14, 0.63, 42.96, 13.82)" gradientUnits="userSpaceOnUse"><stop offset="0.16" stop-color="#010101" stop-opacity="0"/><stop offset="1" stop-color="#010101"/></radialGradient><radialGradient id="radial-gradient-2" cx="40.03" cy="162.09" r="35.02" gradientTransform="translate(31.73 16.53) scale(0.98 0.6)" gradientUnits="userSpaceOnUse"><stop offset="0" stop-color="#010101" stop-opacity="0"/><stop offset="1" stop-color="#010101"/></radialGradient><radialGradient id="radial-gradient-3" cx="40.48" cy="29.84" r="60.28" gradientTransform="matrix(0.98, 0, 0, 0.75, 31.62, 9.5)" gradientUnits="userSpaceOnUse"><stop offset="0.2" stop-color="#010101" stop-opacity="0"/><stop offset="1" stop-color="#010101"/></radialGradient><radialGradient id="radial-gradient-4" cx="3.08" cy="-0.43" r="40.68" gradientTransform="matrix(0.4, 0.89, -1.26, 0.57, 32.96, -0.36)" gradientUnits="userSpaceOnUse"><stop offset="0.36" stop-color="#010101" stop-opacity="0"/><stop offset="1" stop-color="#010101"/></radialGradient><radialGradient id="radial-gradient-5" cx="-412.35" cy="-1203.4" r="1068.94" gradientTransform="translate(31.73 2.56) scale(0.98)" gradientUnits="userSpaceOnUse"><stop offset="0" stop-color="#010101" stop-opacity="0"/><stop offset="0.37" stop-color="#010101"/></radialGradient></defs><title>logos</title><path class="cls-1" d="M221.26,126.41H209.69c-9.11,0-13.32-5-13.32-13v-6.2c-18.23-2.33-29.8-16.83-29.8-41.84,0-27.46,13.91-42.19,35.18-42.19s35.17,14.73,35.17,42.19c0,24.31-10.86,38.69-28.16,41.61v8.41H221Zm1.52-54.58V59c0-14.84-8.41-24-21-24s-21,9.12-21,24V71.83c0,14.84,8.41,24,21,24S222.78,86.67,222.78,71.83Z"/><path class="cls-1" d="M246.31,30.26v-2c0-3.86,2.34-6.66,7.6-6.66s7.48,2.8,7.48,6.66v2c0,3.85-2.22,6.66-7.48,6.66S246.31,34.11,246.31,30.26Z"/><rect class="cls-1" x="247.48" y="45.42" width="12.74" height="60.77"/><path class="cls-1" d="M270.85,96.14,279,88.66c4.44,5.38,9.93,8.65,17.18,8.65s11.1-3,11.1-8.18c0-3.86-2.34-6.78-8.65-7.6l-5.61-.7c-12.39-1.52-20-6.9-20-18.12,0-11.8,9.23-18.7,22.55-18.7,11,0,17.18,3.63,22.68,9.7l-7.83,7.48a19.36,19.36,0,0,0-14.85-6.89c-7,0-10.28,3-10.28,7.59s2.92,6.78,9.35,7.84l5.61.7c13.32,2,19.28,7.83,19.28,17.64,0,11.69-9.46,19.52-24.07,19.52C284.05,107.59,276.57,103.27,270.85,96.14Z"/><path class="cls-1" d="M328.22,19.7H341V72.76h.58L350,61.89l14.61-16.47h14.84L358.14,68.91,382,106.19H366.79l-17.42-29L341,86.32v19.87H328.22Z"/><path class="cls-1" d="M390.84,30.26v-2c0-3.86,2.34-6.66,7.6-6.66s7.47,2.8,7.47,6.66v2c0,3.85-2.22,6.66-7.47,6.66S390.84,34.11,390.84,30.26Z"/><rect class="cls-1" x="392.01" y="45.42" width="12.74" height="60.77"/><path class="cls-1" d="M438.28,106.19c-8.77,0-13.44-4.91-13.44-13.21V55.82h-9.47V45.42h5.15c4.2,0,5.6-1.76,5.6-6V28.82h11.46v16.6h12.74v10.4H437.58v40h11.8v10.4Z"/><path class="cls-2" d="M131.14,103.14v0h0C131,90.19,100.61,82.88,72,82.56c-30.35,0-61.75,7.68-61.85,20.54h0v.08h0c.12,12.92,30.53,20.22,59.14,20.54,30.35,0,61.75-7.68,61.85-20.54h0ZM69.28,119c-32-.36-54.33-8.63-54.41-15.85C15,95.65,39.36,87.29,72,87.29c32,.36,54.33,8.63,54.41,15.85C126.32,110.63,101.91,119,69.28,119Z"/><path class="cls-1" d="M70.77,140.34a70,70,0,1,1,61.52-103h0a69.95,69.95,0,0,1-61.52,103ZM70.55,5.16a65.21,65.21,0,1,0,57.6,34.38h0A65.3,65.3,0,0,0,70.55,5.16Z"/><path class="cls-3" d="M88.69,130.93v0h0c-.07-5.35-7.8-9.39-18-9.39s-18,4-18,9.39h0V131h0c.07,5.35,7.8,9.39,18,9.39s18-4,18-9.39h0Zm-18,5c-8.09,0-13.25-2.92-13.31-5s5.22-5,13.31-5,13.24,2.93,13.3,5S78.74,135.89,70.66,135.89Z"/><path class="cls-4" d="M140.62,70.41a.43.43,0,0,0,0,0h0c-.2-13.85-35.32-21.75-68.36-22.09-35,0-71.37,8.3-71.57,22.09h0s0,0,0,.06a.43.43,0,0,0,0,0h0C.89,84.32,36,92.22,69.05,92.56c35,0,71.37-8.3,71.57-22.09h0S140.62,70.43,140.62,70.41ZM69.07,87.83C31.65,87.44,5.55,78.35,5.42,70.42,5.55,62.19,34.09,53,72.24,53c37.42.39,63.52,9.48,63.65,17.41C135.76,78.64,107.22,87.83,69.07,87.83Z"/><path class="cls-5" d="M72,16.88c-30.36,0-61.76,7.71-61.76,20.59s30.39,20.28,59,20.6c30.36,0,61.76-7.71,61.76-20.6S100.65,17.2,72,16.88ZM69.31,53.34C37.31,53,15,44.69,15,37.47,15,30,39.4,21.61,72,21.61c32,.36,54.29,8.65,54.29,15.86C126.31,45,101.92,53.34,69.31,53.34Z"/><path d="M70.42.37c-5.09,0-16.92.77-16.92,7.89s11.83,7.89,16.92,7.89,16.92-.77,16.92-7.89S75.51.37,70.42.37Zm0,4.79c7.15,0,12.13,1.64,12.13,3.1s-5,3.1-12.13,3.1S58.29,9.73,58.29,8.26,63.27,5.16,70.42,5.16Z"/><path class="cls-6" d="M100,112.81a6.11,6.11,0,0,0-.86.07h0L72.83,67.45h0L48.88,26.06a6,6,0,1,0-4.54,2.25,6.6,6.6,0,0,0,.79-.08L69.08,69.62h0L79.9,88.33h0L95.34,115a6,6,0,1,0,4.63-2.19Z"/></svg>