<svg id="Layer_1" data-name="Layer 1" xmlns="http://www.w3.org/2000/svg" xmlns:xlink="http://www.w3.org/1999/xlink" viewBox="0 0 140.23 139.99"><defs><style>.cls-1{fill:url(#radial-gradient);}.cls-2{fill:#010101;}.cls-3{fill:url(#radial-gradient-2);}.cls-4{fill:url(#radial-gradient-3);}.cls-5{fill:url(#radial-gradient-4);}.cls-6{fill:url(#radial-gradient-5);}</style><radialGradient id="radial-gradient" cx="74.23" cy="70.77" r="64.97" gradientTransform="matrix(0.96, 0.21, -0.14, 0.63, 32.16, 11.47)" gradientUnits="userSpaceOnUse"><stop offset="0.16" stop-color="#010101" stop-opacity="0"/><stop offset="1" stop-color="#010101"/></radialGradient><radialGradient id="radial-gradient-2" cx="50.72" cy="161.72" r="35.02" gradientTransform="translate(20.74 16.4) scale(0.98 0.6)" gradientUnits="userSpaceOnUse"><stop offset="0" stop-color="#010101" stop-opacity="0"/><stop offset="1" stop-color="#010101"/></radialGradient><radialGradient id="radial-gradient-3" cx="51.17" cy="29.48" r="60.28" gradientTransform="matrix(0.98, 0, 0, 0.75, 20.63, 9.47)" gradientUnits="userSpaceOnUse"><stop offset="0.2" stop-color="#010101" stop-opacity="0"/><stop offset="1" stop-color="#010101"/></radialGradient><radialGradient id="radial-gradient-4" cx="13.77" cy="-0.79" r="40.68" gradientTransform="matrix(0.4, 0.89, -1.26, 0.57, 27.65, -10.03)" gradientUnits="userSpaceOnUse"><stop offset="0.36" stop-color="#010101" stop-opacity="0"/><stop offset="1" stop-color="#010101"/></radialGradient><radialGradient id="radial-gradient-5" cx="-401.66" cy="-1203.76" r="1068.94" gradientTransform="translate(20.74 2.56) scale(0.98)" gradientUnits="userSpaceOnUse"><stop offset="0" stop-color="#010101" stop-opacity="0"/><stop offset="0.37" stop-color="#010101"/></radialGradient></defs><title>logos</title><path class="cls-1" d="M130.6,102.79v0h0c-.12-12.91-30.52-20.22-59.14-20.54-30.35,0-61.75,7.68-61.85,20.54h0s0,0,0,0,0,0,0,0h0c.12,12.92,30.52,20.22,59.14,20.54,30.35,0,61.75-7.68,61.85-20.54h0ZM68.75,118.64c-32-.36-54.33-8.63-54.41-15.85.08-7.49,24.49-15.85,57.12-15.85,32,.36,54.33,8.63,54.41,15.85C125.79,110.28,101.38,118.64,68.75,118.64Z"/><path class="cls-2" d="M70.24,140A70,70,0,1,1,131.75,37h0A69.95,69.95,0,0,1,70.24,140ZM70,4.81a65.21,65.21,0,1,0,57.59,34.38h0A65.29,65.29,0,0,0,70,4.81Z"/><path class="cls-3" d="M88.16,130.58v0h0c-.07-5.35-7.8-9.39-18-9.39s-18,4-18,9.39h0v.07h0c.06,5.35,7.8,9.39,18,9.39s18-4,18-9.39h0Zm-18,5c-8.08,0-13.25-2.92-13.3-5s5.22-5,13.3-5,13.25,2.93,13.3,5S78.2,135.54,70.12,135.54Z"/><path class="cls-4" d="M140.09,70.06v0h0c-.19-13.85-35.32-21.75-68.35-22.09C36.69,47.92.36,56.22.16,70h0s0,0,0,.06a.43.43,0,0,0,0,.05h0C.35,84,35.48,91.87,68.51,92.21c35,0,71.37-8.3,71.57-22.09h0ZM68.54,87.48C31.12,87.09,5,78,4.89,70.07,5,61.84,33.56,52.65,71.71,52.65c37.42.39,63.52,9.48,63.64,17.41C135.23,78.29,106.68,87.48,68.54,87.48Z"/><path class="cls-5" d="M71.51,16.53c-30.36,0-61.77,7.71-61.77,20.59s30.39,20.28,59,20.6c30.35,0,61.76-7.71,61.76-20.6S100.12,16.85,71.51,16.53ZM68.77,53c-32-.36-54.29-8.65-54.29-15.87,0-7.48,24.39-15.86,57-15.86,32,.35,54.3,8.65,54.3,15.86C125.78,44.61,101.39,53,68.77,53Z"/><path d="M69.89,0C64.8,0,53,.79,53,7.91S64.8,15.8,69.89,15.8,86.81,15,86.81,7.91,75,0,69.89,0Zm0,4.79C77,4.81,82,6.45,82,7.91S77,11,69.89,11,57.76,9.37,57.76,7.91,62.74,4.81,69.89,4.81Z"/><path class="cls-6" d="M99.44,112.46a6,6,0,0,0-.86.07h0L72.3,67.1h0L48.35,25.71A6,6,0,1,0,43.81,28a6.82,6.82,0,0,0,.79-.08L68.55,69.27h0L79.36,88h0l15.44,26.67a6,6,0,1,0,4.63-2.19Z"/></svg>